<mxfile host="app.diagrams.net" agent="Mozilla/5.0 (X11; Linux x86_64; rv:143.0) Gecko/20100101 Firefox/143.0" version="28.2.7">
  <diagram name="Page 1" id="Page-1">
    <mxGraphModel dx="1943" dy="1093" grid="1" gridSize="10" guides="1" tooltips="1" connect="1" arrows="1" fold="1" page="1" pageScale="1" pageWidth="827" pageHeight="1169" math="0" shadow="0">
      <root>
        <mxCell id="0" />
        <mxCell id="1" parent="0" />
        <mxCell id="ov04Z9NVKurlLaXQOtr0-53" value="&lt;div align=&quot;right&quot;&gt;V&lt;sub&gt;ent&lt;/sub&gt;&lt;/div&gt;" style="text;html=1;whiteSpace=wrap;strokeColor=none;fillColor=none;align=right;verticalAlign=middle;rounded=0;fontFamily=Helvetica;fontSize=11;fontColor=default;labelBackgroundColor=default;convertToSvg=1;" vertex="1" parent="1">
          <mxGeometry x="60" y="465" width="23" height="30" as="geometry" />
        </mxCell>
        <mxCell id="ov04Z9NVKurlLaXQOtr0-54" value="" style="pointerEvents=1;verticalLabelPosition=bottom;shadow=0;dashed=0;align=center;html=1;verticalAlign=top;shape=mxgraph.electrical.signal_sources.source;aspect=fixed;points=[[0.5,0,0],[1,0.5,0],[0.5,1,0],[0,0.5,0]];elSignalType=ac;convertToSvg=1;" vertex="1" parent="1">
          <mxGeometry x="90" y="450" width="60" height="60" as="geometry" />
        </mxCell>
        <mxCell id="ov04Z9NVKurlLaXQOtr0-56" style="edgeStyle=orthogonalEdgeStyle;shape=connector;rounded=0;orthogonalLoop=1;jettySize=auto;html=1;exitX=0;exitY=0.5;exitDx=0;exitDy=0;exitPerimeter=0;entryX=0.5;entryY=0;entryDx=0;entryDy=0;entryPerimeter=0;strokeColor=default;align=center;verticalAlign=middle;fontFamily=Helvetica;fontSize=11;fontColor=default;labelBackgroundColor=default;endArrow=none;endFill=0;convertToSvg=1;" edge="1" parent="1" target="ov04Z9NVKurlLaXQOtr0-54">
          <mxGeometry relative="1" as="geometry">
            <mxPoint x="162" y="400" as="sourcePoint" />
          </mxGeometry>
        </mxCell>
        <mxCell id="ov04Z9NVKurlLaXQOtr0-66" value="C" style="pointerEvents=1;verticalLabelPosition=bottom;shadow=0;dashed=0;align=center;html=1;verticalAlign=top;shape=mxgraph.electrical.capacitors.capacitor_1;rotation=0;horizontal=1;convertToSvg=1;" vertex="1" parent="1">
          <mxGeometry x="162" y="370" width="100" height="60" as="geometry" />
        </mxCell>
        <mxCell id="ov04Z9NVKurlLaXQOtr0-74" style="edgeStyle=orthogonalEdgeStyle;shape=connector;rounded=0;orthogonalLoop=1;jettySize=auto;html=1;exitX=0;exitY=0.5;exitDx=0;exitDy=0;exitPerimeter=0;strokeColor=default;align=center;verticalAlign=middle;fontFamily=Helvetica;fontSize=11;fontColor=default;labelBackgroundColor=default;endArrow=none;endFill=0;" edge="1" parent="1" source="ov04Z9NVKurlLaXQOtr0-67" target="ov04Z9NVKurlLaXQOtr0-70">
          <mxGeometry relative="1" as="geometry" />
        </mxCell>
        <mxCell id="ov04Z9NVKurlLaXQOtr0-67" value="R&lt;sub&gt;2&lt;/sub&gt;" style="pointerEvents=1;verticalLabelPosition=bottom;shadow=0;dashed=0;align=center;html=1;verticalAlign=middle;shape=mxgraph.electrical.resistors.resistor_2;convertToSvg=1;rotation=90;horizontal=0;" vertex="1" parent="1">
          <mxGeometry x="230" y="460" width="100" height="20" as="geometry" />
        </mxCell>
        <mxCell id="ov04Z9NVKurlLaXQOtr0-82" value="" style="edgeStyle=orthogonalEdgeStyle;shape=connector;rounded=0;orthogonalLoop=1;jettySize=auto;html=1;strokeColor=default;align=center;verticalAlign=middle;fontFamily=Helvetica;fontSize=11;fontColor=default;labelBackgroundColor=default;endArrow=none;endFill=0;" edge="1" parent="1" source="ov04Z9NVKurlLaXQOtr0-68" target="ov04Z9NVKurlLaXQOtr0-81">
          <mxGeometry relative="1" as="geometry" />
        </mxCell>
        <mxCell id="ov04Z9NVKurlLaXQOtr0-68" value="R&lt;sub&gt;1&lt;/sub&gt;" style="pointerEvents=1;verticalLabelPosition=bottom;shadow=0;dashed=0;align=center;html=1;verticalAlign=middle;shape=mxgraph.electrical.resistors.resistor_2;convertToSvg=1;rotation=90;horizontal=0;" vertex="1" parent="1">
          <mxGeometry x="230" y="330" width="100" height="20" as="geometry" />
        </mxCell>
        <mxCell id="ov04Z9NVKurlLaXQOtr0-69" value="" style="shape=waypoint;sketch=0;fillStyle=solid;size=6;pointerEvents=1;points=[];fillColor=none;resizable=0;rotatable=0;perimeter=centerPerimeter;snapToPoint=1;" vertex="1" parent="1">
          <mxGeometry x="270" y="390" width="20" height="20" as="geometry" />
        </mxCell>
        <mxCell id="ov04Z9NVKurlLaXQOtr0-70" value="" style="shape=waypoint;sketch=0;fillStyle=solid;size=6;pointerEvents=1;points=[];fillColor=none;resizable=0;rotatable=0;perimeter=centerPerimeter;snapToPoint=1;" vertex="1" parent="1">
          <mxGeometry x="270" y="400" width="20" height="20" as="geometry" />
        </mxCell>
        <mxCell id="ov04Z9NVKurlLaXQOtr0-72" value="" style="verticalLabelPosition=bottom;shadow=0;dashed=0;align=center;html=1;verticalAlign=top;shape=mxgraph.electrical.abstract.amplifier;" vertex="1" parent="1">
          <mxGeometry x="330" y="360" width="94" height="100" as="geometry" />
        </mxCell>
        <mxCell id="ov04Z9NVKurlLaXQOtr0-73" style="edgeStyle=orthogonalEdgeStyle;rounded=0;orthogonalLoop=1;jettySize=auto;html=1;exitX=0;exitY=0.5;exitDx=0;exitDy=0;exitPerimeter=0;entryX=0.653;entryY=0.553;entryDx=0;entryDy=0;entryPerimeter=0;endArrow=none;endFill=0;" edge="1" parent="1" source="ov04Z9NVKurlLaXQOtr0-72" target="ov04Z9NVKurlLaXQOtr0-70">
          <mxGeometry relative="1" as="geometry" />
        </mxCell>
        <mxCell id="ov04Z9NVKurlLaXQOtr0-75" style="edgeStyle=orthogonalEdgeStyle;shape=connector;rounded=0;orthogonalLoop=1;jettySize=auto;html=1;exitX=1;exitY=0.5;exitDx=0;exitDy=0;exitPerimeter=0;entryX=0.537;entryY=-0.005;entryDx=0;entryDy=0;entryPerimeter=0;strokeColor=default;align=center;verticalAlign=middle;fontFamily=Helvetica;fontSize=11;fontColor=default;labelBackgroundColor=default;endArrow=none;endFill=0;" edge="1" parent="1" source="ov04Z9NVKurlLaXQOtr0-68" target="ov04Z9NVKurlLaXQOtr0-70">
          <mxGeometry relative="1" as="geometry" />
        </mxCell>
        <mxCell id="ov04Z9NVKurlLaXQOtr0-76" style="edgeStyle=orthogonalEdgeStyle;shape=connector;rounded=0;orthogonalLoop=1;jettySize=auto;html=1;exitX=1;exitY=0.5;exitDx=0;exitDy=0;exitPerimeter=0;entryX=0.351;entryY=-0.063;entryDx=0;entryDy=0;entryPerimeter=0;strokeColor=default;align=center;verticalAlign=middle;fontFamily=Helvetica;fontSize=11;fontColor=default;labelBackgroundColor=default;endArrow=none;endFill=0;" edge="1" parent="1" source="ov04Z9NVKurlLaXQOtr0-66" target="ov04Z9NVKurlLaXQOtr0-70">
          <mxGeometry relative="1" as="geometry" />
        </mxCell>
        <mxCell id="ov04Z9NVKurlLaXQOtr0-77" value="" style="pointerEvents=1;verticalLabelPosition=bottom;shadow=0;dashed=0;align=center;html=1;verticalAlign=top;shape=mxgraph.electrical.signal_sources.protective_earth;fontFamily=Helvetica;fontSize=11;fontColor=default;labelBackgroundColor=default;" vertex="1" parent="1">
          <mxGeometry x="267.5" y="540" width="25" height="20" as="geometry" />
        </mxCell>
        <mxCell id="ov04Z9NVKurlLaXQOtr0-78" value="" style="pointerEvents=1;verticalLabelPosition=bottom;shadow=0;dashed=0;align=center;html=1;verticalAlign=top;shape=mxgraph.electrical.signal_sources.protective_earth;fontFamily=Helvetica;fontSize=11;fontColor=default;labelBackgroundColor=default;" vertex="1" parent="1">
          <mxGeometry x="107.5" y="540" width="25" height="20" as="geometry" />
        </mxCell>
        <mxCell id="ov04Z9NVKurlLaXQOtr0-79" style="edgeStyle=orthogonalEdgeStyle;shape=connector;rounded=0;orthogonalLoop=1;jettySize=auto;html=1;exitX=0.5;exitY=0;exitDx=0;exitDy=0;exitPerimeter=0;entryX=0.5;entryY=1;entryDx=0;entryDy=0;entryPerimeter=0;strokeColor=default;align=center;verticalAlign=middle;fontFamily=Helvetica;fontSize=11;fontColor=default;labelBackgroundColor=default;endArrow=none;endFill=0;" edge="1" parent="1" source="ov04Z9NVKurlLaXQOtr0-78" target="ov04Z9NVKurlLaXQOtr0-54">
          <mxGeometry relative="1" as="geometry" />
        </mxCell>
        <mxCell id="ov04Z9NVKurlLaXQOtr0-80" style="edgeStyle=orthogonalEdgeStyle;shape=connector;rounded=0;orthogonalLoop=1;jettySize=auto;html=1;exitX=0.5;exitY=0;exitDx=0;exitDy=0;exitPerimeter=0;entryX=1;entryY=0.5;entryDx=0;entryDy=0;entryPerimeter=0;strokeColor=default;align=center;verticalAlign=middle;fontFamily=Helvetica;fontSize=11;fontColor=default;labelBackgroundColor=default;endArrow=none;endFill=0;" edge="1" parent="1" source="ov04Z9NVKurlLaXQOtr0-77" target="ov04Z9NVKurlLaXQOtr0-67">
          <mxGeometry relative="1" as="geometry" />
        </mxCell>
        <mxCell id="ov04Z9NVKurlLaXQOtr0-81" value="V&lt;sub&gt;CC&lt;/sub&gt;" style="verticalLabelPosition=top;verticalAlign=bottom;shape=mxgraph.electrical.signal_sources.vdd;shadow=0;dashed=0;align=center;strokeWidth=1;fontSize=12;html=1;flipV=1;fontFamily=Helvetica;fontColor=default;labelBackgroundColor=default;" vertex="1" parent="1">
          <mxGeometry x="270" y="270" width="20" height="10" as="geometry" />
        </mxCell>
      </root>
    </mxGraphModel>
  </diagram>
</mxfile>
